<?xml version="1.0" standalone="no"?>
<!DOCTYPE svg PUBLIC "-//W3C//DTD SVG 20010904//EN"
 "http://www.w3.org/TR/2001/REC-SVG-20010904/DTD/svg10.dtd">
<svg version="1.0" xmlns="http://www.w3.org/2000/svg"
 width="1024.000000pt" height="1024.000000pt" viewBox="0 0 1024.000000 1024.000000"
 preserveAspectRatio="xMidYMid meet">

<g transform="translate(0.000000,1024.000000) scale(0.100000,-0.100000)"
fill="#689C98" stroke="#033A3D" stroke-width="30">
<path d="M5075 8641 c-103 -13 -129 -45 -81 -102 27 -32 32 -61 41 -251 4 -92
2 -118 -8 -118 -7 0 -111 74 -232 165 -121 91 -242 177 -269 190 -81 40 -174
27 -212 -30 -17 -26 -17 -26 24 -61 22 -19 45 -49 51 -67 18 -59 41 -220 61
-436 24 -257 25 -320 5 -368 -20 -48 -19 -70 6 -84 23 -12 58 -9 199 18 147
28 164 47 111 125 -26 38 -32 59 -46 178 -8 74 -17 150 -19 168 -3 17 -2 32 1
32 11 0 151 -117 298 -250 83 -75 168 -148 190 -163 48 -33 113 -37 138 -9 22
24 21 38 -3 77 -27 43 -37 183 -38 500 -1 285 7 344 49 393 51 58 13 85 -136
95 -38 3 -97 2 -130 -2z"/>
<path d="M5864 8555 c-96 -21 -178 -68 -258 -148 -115 -116 -169 -245 -169
-402 1 -144 65 -286 182 -398 106 -102 239 -158 381 -158 86 0 146 16 164 44
9 14 15 65 19 145 5 143 3 146 -73 113 -58 -25 -98 -26 -170 -5 -78 23 -162
109 -185 189 -50 169 70 346 245 362 70 7 117 -8 171 -53 22 -19 49 -34 59
-34 10 0 45 27 79 59 52 50 61 64 61 93 0 140 -273 244 -506 193z"/>
<path d="M3995 8440 c-59 -11 -128 -35 -172 -62 -39 -23 -43 -56 -12 -84 24
-21 47 -63 61 -108 24 -83 69 -268 65 -272 -2 -2 -114 51 -248 120 -134 68
-267 128 -294 134 -79 17 -175 -14 -197 -64 -10 -22 -8 -29 29 -67 58 -60 54
-52 189 -421 93 -255 108 -315 100 -397 -12 -117 28 -126 193 -42 153 79 174
113 102 171 -34 27 -43 44 -79 154 -49 152 -55 178 -42 178 16 0 113 -50 324
-168 146 -81 200 -106 235 -109 92 -8 141 57 91 120 -27 34 -51 106 -101 297
-23 85 -58 220 -80 300 -43 160 -47 203 -22 255 15 31 15 37 2 50 -19 19 -83
26 -144 15z"/>
<path d="M6550 8382 l-24 -20 18 -41 c14 -30 17 -54 13 -94 -6 -57 -94 -302
-197 -549 -50 -121 -66 -149 -105 -184 -72 -67 -55 -106 64 -145 88 -30 267
-110 360 -162 42 -23 84 -45 95 -50 25 -10 59 13 94 65 15 22 35 52 44 67 22
33 23 77 2 85 -9 3 -28 6 -43 6 -37 0 -156 59 -218 109 -45 35 -53 47 -53 74
0 36 31 110 50 122 7 5 50 -10 102 -36 69 -34 92 -41 106 -33 23 14 113 165
110 182 -2 8 -32 26 -68 41 -91 36 -140 67 -140 88 0 28 59 123 75 123 29 0
200 -87 243 -123 24 -21 48 -37 53 -37 5 0 14 11 19 25 5 14 29 47 54 73 58
63 63 82 29 113 -46 42 -80 63 -253 152 -161 83 -314 149 -376 161 -22 5 -37
2 -54 -12z"/>
<path d="M7443 7918 c-4 -7 -6 -36 -4 -64 2 -45 -3 -64 -44 -145 -56 -112
-184 -315 -282 -446 -60 -80 -81 -102 -127 -125 -63 -32 -70 -40 -62 -72 9
-35 213 -174 260 -178 45 -3 56 8 63 63 8 58 31 102 91 168 52 59 73 63 94 16
9 -21 6 -42 -21 -130 -35 -112 -42 -214 -21 -271 16 -42 58 -93 94 -115 38
-23 108 -25 130 -3 19 19 19 23 1 98 -15 65 -8 170 18 241 14 39 15 40 73 47
184 21 297 126 325 301 23 143 -49 289 -203 414 -103 83 -206 156 -264 187
-52 28 -108 34 -121 14z m244 -410 c75 -54 103 -140 68 -207 -12 -25 -31 -37
-86 -54 -26 -8 -100 30 -135 71 -18 20 -33 41 -34 45 0 14 126 177 138 177 2
0 24 -15 49 -32z"/>
<path d="M2865 7908 c-16 -6 -50 -25 -75 -43 -25 -18 -83 -58 -129 -90 -81
-55 -216 -158 -309 -234 -48 -40 -75 -82 -66 -104 3 -8 25 -20 49 -26 55 -14
85 -48 223 -256 194 -291 237 -368 252 -445 13 -67 24 -80 69 -80 43 0 65 14
146 91 93 88 199 174 312 252 141 97 143 110 40 216 -66 68 -96 83 -112 56
-36 -61 -60 -85 -145 -146 -52 -38 -103 -69 -112 -69 -19 0 -88 95 -88 121 0
15 62 67 133 112 15 10 27 25 27 34 0 17 -43 142 -60 174 -18 33 -31 27 -182
-81 l-48 -34 -26 24 c-38 36 -66 87 -60 108 16 49 216 195 284 207 23 4 42 10
42 13 0 4 -14 46 -32 95 -25 70 -37 91 -59 103 -32 16 -34 16 -74 2z"/>
<path d="M2033 7243 c-95 -67 -479 -507 -523 -600 -40 -86 -22 -111 108 -147
137 -38 165 -33 126 22 -9 14 -13 33 -10 46 7 27 99 116 120 116 24 0 123 -90
262 -237 156 -165 200 -221 214 -272 12 -44 46 -66 83 -52 53 20 201 212 213
277 9 47 -8 64 -63 64 -76 0 -116 30 -325 243 -109 111 -198 206 -198 210 0
14 103 118 132 133 15 8 43 14 63 14 46 0 45 16 -6 65 -22 22 -49 57 -60 77
-20 40 -54 68 -80 68 -9 0 -34 -12 -56 -27z"/>
<path d="M8296 7144 c-9 -8 -16 -30 -16 -48 0 -24 -12 -46 -52 -92 -138 -159
-383 -391 -447 -424 -20 -10 -55 -21 -76 -25 -105 -19 -113 -67 -27 -158 81
-86 157 -176 241 -287 40 -52 84 -101 96 -107 29 -16 62 -5 115 37 21 17 41
30 46 30 13 0 64 53 64 67 0 7 -21 24 -47 37 -27 13 -67 44 -90 68 -41 42
-103 147 -103 174 0 18 106 97 120 89 13 -8 80 -112 80 -125 0 -19 35 -27 67
-16 48 17 153 103 153 125 0 11 -14 29 -30 41 -17 12 -49 47 -72 77 l-40 55
51 52 c42 42 54 49 69 40 34 -21 163 -180 185 -227 31 -67 51 -70 139 -16 81
50 94 66 85 101 -15 60 -372 513 -422 536 -36 16 -71 15 -89 -4z"/>
<path d="M5155 7073 c-75 -9 -218 -49 -299 -84 -166 -71 -273 -147 -416 -295
-98 -102 -127 -139 -324 -411 -86 -119 -146 -190 -232 -272 -90 -86 -115 -116
-112 -134 2 -15 11 -23 29 -25 59 -7 348 256 581 528 241 282 405 411 614 484
185 65 423 65 619 1 139 -46 370 -170 507 -274 55 -41 94 -51 116 -29 34 34 3
81 -126 190 -210 177 -414 278 -628 312 -92 14 -251 19 -329 9z"/>
<path d="M3751 6981 c-69 -24 -99 -47 -138 -105 -28 -41 -33 -57 -33 -107 0
-73 17 -116 59 -152 43 -35 78 -44 110 -26 35 20 37 52 7 92 -34 44 -33 72 3
108 36 35 88 39 135 10 105 -65 87 -231 -40 -384 -30 -35 -31 -73 -3 -87 26
-15 54 3 129 81 140 145 174 293 99 435 -63 119 -207 178 -328 135z"/>
<path d="M6687 6739 c-120 -29 -207 -126 -207 -232 0 -113 136 -221 200 -157
27 27 25 43 -11 84 -25 29 -29 41 -24 66 16 73 110 93 184 39 52 -37 73 -83
72 -160 0 -102 -65 -190 -170 -230 -46 -17 -71 -20 -141 -16 -156 8 -291 70
-610 282 -118 78 -243 157 -277 174 -354 177 -671 137 -919 -116 -82 -83 -97
-107 -89 -131 13 -43 44 -33 121 38 137 127 284 180 466 166 172 -13 307 -75
609 -279 293 -198 468 -283 638 -307 190 -28 377 46 470 187 103 156 89 377
-31 500 -71 72 -196 113 -281 92z"/>
<path d="M3252 6370 c-78 -40 -162 -129 -193 -207 -19 -48 -24 -77 -24 -163 0
-97 2 -110 32 -172 40 -85 106 -151 191 -191 60 -29 76 -32 158 -32 104 0 138
16 132 64 -3 25 -6 26 -64 28 -250 6 -386 319 -209 482 71 65 160 68 222 6 41
-41 44 -84 8 -127 -32 -38 -32 -63 0 -84 78 -51 209 87 190 198 -16 90 -95
182 -182 212 -27 9 -80 16 -123 16 -66 0 -86 -4 -138 -30z"/>
<path d="M5023 6341 c-137 -47 -245 -177 -245 -291 1 -32 -3 -50 -11 -51 -98
-6 -321 -54 -458 -99 -221 -73 -442 -195 -560 -311 -71 -69 -159 -187 -198
-265 l-31 -62 -168 1 c-109 0 -181 -4 -207 -13 -96 -30 -171 -101 -208 -198
-37 -92 -12 -198 63 -273 69 -69 112 -79 332 -79 l178 0 1 -242 c0 -134 2
-272 5 -308 21 -250 223 -495 489 -595 80 -31 168 -49 340 -71 162 -22 1187
-32 1415 -14 397 30 570 71 717 171 157 107 247 222 305 392 20 57 22 88 25
365 l4 302 188 0 c116 0 201 4 222 12 113 38 174 130 173 258 -1 118 -56 204
-166 260 -56 27 -70 30 -162 30 -56 0 -137 3 -182 6 l-80 7 -34 65 c-40 76
-139 200 -208 259 -145 123 -348 233 -560 303 -119 39 -345 90 -400 90 -61 0
-70 8 -70 61 -1 129 -114 255 -264 295 -73 19 -182 17 -245 -5z m127 -152 c0
30 100 -2 154 -51 54 -46 63 -85 35 -144 -11 -23 -29 -50 -40 -60 -20 -18 -20
-18 -14 7 15 58 -31 107 -113 120 -84 13 -142 -29 -142 -103 0 -50 -19 -49
-54 0 -46 66 -32 133 39 194 29 26 107 48 123 36 8 -7 12 -7 12 1z m-220 -369
c7 -53 18 -76 57 -111 82 -75 246 -79 342 -8 35 25 61 84 61 134 0 42 -6 41
153 14 318 -55 570 -146 772 -277 l70 -46 -65 -12 c-222 -41 -371 -65 -429
-69 -36 -2 -84 -7 -106 -10 -293 -37 -1048 -35 -1290 5 -33 5 -85 10 -116 10
-102 0 -429 64 -429 84 0 16 112 89 216 140 50 25 144 62 210 84 152 50 448
112 519 109 28 -2 30 -5 35 -47z m-940 -430 c303 -61 613 -94 1000 -105 405
-12 1010 36 1345 106 159 34 158 34 193 4 29 -24 44 -65 24 -65 -4 0 -61 -11
-127 -25 -176 -37 -323 -61 -475 -80 -74 -10 -142 -20 -150 -22 -8 -3 -41 -4
-74 -3 -39 1 -56 -2 -52 -9 4 -7 1 -8 -8 -5 -9 3 -16 1 -16 -5 0 -6 5 -11 12
-11 9 0 9 -3 1 -11 -15 -15 -34 -2 -26 19 7 18 5 17 -17 -11 -7 -10 -9 -17 -4
-15 10 3 66 -37 59 -43 -2 -2 12 -4 31 -4 19 0 34 4 34 8 0 5 5 5 10 2 31 -19
-31 -29 -192 -30 -42 0 -74 -3 -71 -7 4 -8 -74 -10 -357 -9 -214 0 -439 11
-635 31 -49 5 -98 10 -108 10 -10 0 -16 3 -14 8 3 4 -18 8 -46 8 -29 1 -68 4
-87 6 -19 2 -52 5 -72 6 -26 1 -38 7 -38 17 0 8 7 15 16 15 8 0 12 5 9 10 -4
6 -12 7 -18 3 -7 -4 -21 -7 -32 -6 -16 1 -16 1 -2 -3 30 -9 18 -24 -19 -24
-19 0 -33 3 -31 8 3 4 -6 15 -19 25 -19 14 -23 15 -18 2 3 -8 11 -15 17 -15 6
0 8 -3 5 -6 -9 -8 -193 26 -310 57 l-38 10 26 52 c25 49 99 137 116 137 4 0
75 -14 158 -30z m1711 -243 c-1 -12 -15 -9 -19 4 -3 6 1 10 8 8 6 -3 11 -8 11
-12z m133 -35 c3 -5 -1 -9 -9 -9 -8 0 -12 4 -9 9 3 4 7 8 9 8 2 0 6 -4 9 -8z
m53 2 c-3 -3 -12 -4 -19 -1 -8 3 -5 6 6 6 11 1 17 -2 13 -5z m-2097 -58 c444
-92 817 -126 1370 -126 559 0 987 44 1505 154 39 9 145 18 237 22 196 8 240 0
299 -56 33 -31 39 -43 39 -78 0 -29 -7 -49 -26 -71 -32 -39 -44 -39 -44 -2 0
41 -37 80 -84 91 -21 5 -120 6 -220 4 -214 -6 -299 -25 -352 -78 -51 -51 -56
-90 -55 -391 1 -295 -7 -357 -56 -447 -42 -77 -147 -151 -218 -152 -26 -1 -38
-4 -32 -9 7 -5 3 -7 -10 -4 -13 3 -23 2 -23 -3 0 -4 -41 -10 -90 -14 -103 -8
-120 -12 -120 -32 0 -17 40 -34 81 -34 16 0 28 -5 27 -11 -2 -6 5 -13 15 -14
9 -2 15 1 11 6 -3 5 22 9 58 9 35 0 81 3 103 6 l40 5 -48 -20 c-27 -11 -54
-24 -60 -29 -26 -19 -109 -36 -292 -58 -71 -8 -143 -17 -160 -19 -16 -3 -70
-7 -120 -11 -49 -3 -96 -6 -102 -6 -15 -2 -17 -14 -3 -23 6 -3 10 -1 10 4 0 6
10 11 21 11 17 0 19 -3 10 -14 -17 -20 13 -43 34 -26 9 7 13 15 10 18 -2 3
-11 -1 -20 -8 -16 -13 -18 -10 -9 14 3 9 10 13 15 10 5 -3 9 0 9 6 0 6 5 8 10
5 6 -4 8 -9 6 -13 -2 -4 7 -15 20 -25 20 -15 24 -15 24 -3 0 8 -6 17 -12 20
-7 3 11 4 41 2 52 -4 60 8 11 17 l-25 4 25 1 c14 1 32 -2 40 -8 12 -7 12 -12
0 -34 l-13 -26 -246 -1 c-861 -1 -993 2 -1166 32 -216 37 -409 153 -502 302
-79 127 -77 110 -83 524 -5 354 -6 373 -26 400 -19 26 -92 70 -145 88 -87 28
-123 34 -197 35 -82 0 -85 -1 -118 -34 -24 -24 -34 -43 -34 -65 0 -37 -13 -39
-45 -6 -60 59 2 179 106 206 19 5 108 7 199 4 147 -3 189 -9 380 -49z m2007
48 c-3 -3 -12 -4 -19 -1 -8 3 -5 6 6 6 11 1 17 -2 13 -5z m850 -376 c-3 -8 -6
-5 -6 6 -1 11 2 17 5 13 3 -3 4 -12 1 -19z m1 -135 c-1 -53 -2 -58 -5 -23 -3
24 -10 51 -16 59 -9 12 -9 13 1 7 7 -4 12 -1 12 8 0 9 2 16 5 16 3 0 4 -30 3
-67z m-1 -125 c-3 -8 -6 -5 -6 6 -1 11 2 17 5 13 3 -3 4 -12 1 -19z m0 -105
c-2 -16 -4 -3 -4 27 0 30 2 43 4 28 2 -16 2 -40 0 -55z m3 -64 c0 -16 -4 -28
-9 -25 -8 5 -3 56 5 56 2 0 4 -14 4 -31z m-1 -101 c-1 -45 -3 -56 -8 -38 -4
14 -13 24 -20 22 -7 -1 -10 2 -6 8 3 6 11 8 16 5 5 -4 9 -2 9 4 0 5 -4 13 -10
16 -8 5 7 45 17 45 2 0 3 -28 2 -62z m-55 37 c3 -8 1 -15 -4 -15 -6 0 -10 7
-10 15 0 8 2 15 4 15 2 0 6 -7 10 -15z m9 -70 c4 -8 2 -17 -3 -20 -6 -4 -10 3
-10 14 0 25 6 27 13 6z m24 -17 c-3 -8 -6 -5 -6 6 -1 11 2 17 5 13 3 -3 4 -12
1 -19z m-80 -10 c-3 -8 -6 -5 -6 6 -1 11 2 17 5 13 3 -3 4 -12 1 -19z m93 -22
c0 -22 -21 -76 -31 -76 -9 0 -1 28 14 48 7 9 6 17 -3 25 -10 10 -11 9 -5 -2 5
-10 4 -12 -4 -7 -6 4 -9 12 -6 17 9 14 35 11 35 -5z m-100 -32 c0 -8 -5 -12
-10 -9 -6 4 -8 11 -5 16 9 14 15 11 15 -7z m54 -12 c2 -4 -5 -9 -17 -9 -17 -2
-19 0 -7 7 18 12 18 12 24 2z m-46 -47 c-3 -3 -9 2 -12 12 -6 14 -5 15 5 6 7
-7 10 -15 7 -18z m62 -5 c0 -5 -4 -10 -10 -10 -5 0 -10 5 -10 10 0 6 5 10 10
10 6 0 10 -4 10 -10z m-67 -25 c-3 -9 -8 -14 -10 -11 -3 3 -2 9 2 15 9 16 15
13 8 -4z m47 -5 c0 -5 -8 -10 -17 -10 -15 0 -16 2 -3 10 19 12 20 12 20 0z
m-479 -276 c-11 -15 -21 -21 -21 -15 0 7 -4 9 -10 6 -5 -3 -10 -1 -10 5 0 7 6
10 13 7 8 -3 20 3 27 14 8 10 16 16 18 14 2 -2 -5 -16 -17 -31z m-65 7 c0 -16
-3 -17 -14 -9 -12 10 -7 19 13 28 1 0 1 -9 1 -19z m259 9 c-3 -5 -11 -10 -16
-10 -6 0 -7 5 -4 10 3 6 11 10 16 10 6 0 7 -4 4 -10z m-71 -31 c-7 -13 -31
-11 -40 2 -4 8 1 9 17 4 22 -7 23 -7 9 11 -14 18 -14 18 2 5 10 -7 15 -17 12
-22z m-45 -16 c2 -2 -3 -3 -11 -3 -9 0 -19 7 -22 16 -6 15 -4 15 11 3 10 -7
20 -15 22 -16z m-74 -2 c-3 -6 -11 -11 -16 -11 -5 0 -4 6 3 14 14 16 24 13 13
-3z m-38 -4 c0 -15 -32 -16 -44 -2 -5 4 -3 5 4 1 6 -3 14 -2 18 4 9 14 22 12
22 -3z m-72 -25 c-6 -7 -55 11 -50 18 3 5 16 3 29 -3 14 -7 23 -13 21 -15z
m-151 2 c3 -8 2 -12 -4 -9 -6 3 -10 10 -10 16 0 14 7 11 14 -7z m86 2 c0 -2
-7 -7 -16 -10 -8 -3 -12 -2 -9 4 6 10 25 14 25 6z m-120 -16 c0 -5 -10 -10
-22 -9 -22 0 -22 1 -3 9 11 5 21 9 23 9 1 1 2 -3 2 -9z m-94 -7 c-9 -10 -35
-13 -40 -4 -3 4 7 8 21 9 15 1 23 -1 19 -5z"/>
<path d="M5798 5743 c7 -3 16 -2 19 1 4 3 -2 6 -13 5 -11 0 -14 -3 -6 -6z"/>
<path d="M5908 5713 c7 -3 16 -2 19 1 4 3 -2 6 -13 5 -11 0 -14 -3 -6 -6z"/>
<path d="M5860 5680 c-9 -6 -10 -10 -3 -10 6 0 15 5 18 10 8 12 4 12 -15 0z"/>
<path d="M5783 5652 c-29 -2 -43 -8 -43 -18 0 -11 18 -14 85 -14 50 0 85 -4
85 -10 0 -6 27 -10 60 -10 66 0 160 17 160 30 0 14 -41 18 -169 20 -68 0 -127
2 -130 3 -3 1 -25 1 -48 -1z"/>
<path d="M4308 5643 c7 -3 16 -2 19 1 4 3 -2 6 -13 5 -11 0 -14 -3 -6 -6z"/>
<path d="M4240 5620 c-12 -8 -10 -10 8 -10 13 0 20 4 17 10 -7 12 -6 12 -25 0z"/>
<path d="M4210 5600 c8 -5 20 -10 25 -10 6 0 3 5 -5 10 -8 5 -19 10 -25 10 -5
0 -3 -5 5 -10z"/>
<path d="M4258 5583 c7 -3 16 -2 19 1 4 3 -2 6 -13 5 -11 0 -14 -3 -6 -6z"/>
<path d="M6064 5566 c-66 -12 -101 -33 -85 -49 6 -6 39 -5 91 2 92 14 130 28
130 48 0 16 -48 16 -136 -1z"/>
<path d="M4054 5561 c6 -8 118 -43 133 -40 4 1 10 0 13 -1 3 -1 14 -3 24 -5
11 -2 31 -6 44 -10 15 -4 21 -2 17 5 -3 5 -1 10 4 10 6 0 11 -5 11 -11 0 -6 9
-9 20 -6 11 3 18 1 14 -4 -3 -5 2 -9 10 -9 9 0 16 -4 16 -8 0 -4 9 -8 19 -8
15 0 17 3 9 13 -6 7 -14 10 -19 7 -5 -3 -9 1 -9 9 0 16 -120 44 -139 32 -6 -3
-11 -2 -11 3 0 10 -89 32 -131 32 -17 0 -28 -4 -25 -9z"/>
<path d="M4368 5563 c7 -3 16 -2 19 1 4 3 -2 6 -13 5 -11 0 -14 -3 -6 -6z"/>
<path d="M4404 5503 c8 -9 76 -11 71 -2 -2 3 -21 6 -41 7 -20 1 -34 -1 -30 -5z"/>
<path d="M3918 5293 c7 -3 16 -2 19 1 4 3 -2 6 -13 5 -11 0 -14 -3 -6 -6z"/>
<path d="M4026 5262 c-2 -4 4 -19 15 -32 12 -15 17 -18 13 -7 -7 20 6 23 25 5
10 -11 11 -9 5 5 -4 12 -13 17 -25 14 -11 -3 -19 -1 -19 3 0 5 12 11 28 13 26
4 25 4 -5 6 -17 0 -34 -3 -37 -7z"/>
<path d="M3996 5237 c3 -10 9 -15 12 -12 3 3 0 11 -7 18 -10 9 -11 8 -5 -6z"/>
<path d="M4196 5231 c-4 -5 -1 -13 5 -17 7 -4 9 -3 5 4 -4 7 12 9 56 5 77 -6
74 2 -4 11 -34 4 -58 3 -62 -3z"/>
<path d="M4120 5210 c0 -5 5 -10 11 -10 5 0 7 5 4 10 -3 6 -8 10 -11 10 -2 0
-4 -4 -4 -10z"/>
<path d="M4177 5196 c-5 -11 -1 -16 14 -16 11 0 22 -7 25 -15 8 -19 20 -19 27
-1 4 11 1 13 -10 9 -11 -4 -14 -2 -9 5 4 7 17 12 28 12 12 0 19 3 16 6 -11 11
-43 11 -56 1 -10 -8 -16 -7 -21 2 -6 10 -10 9 -14 -3z"/>
<path d="M5559 5173 c-13 -16 -12 -17 4 -4 9 7 17 15 17 17 0 8 -8 3 -21 -13z"/>
<path d="M4259 5163 c-13 -16 -12 -17 3 -5 14 11 17 10 23 -7 3 -12 11 -21 16
-21 5 0 2 11 -7 25 -19 30 -18 29 -35 8z"/>
<path d="M4348 5173 c6 -2 9 -10 6 -15 -4 -7 -2 -8 5 -4 13 9 5 26 -12 25 -9
0 -8 -2 1 -6z"/>
<path d="M5390 5169 c0 -5 5 -7 10 -4 6 3 10 8 10 11 0 2 -4 4 -10 4 -5 0 -10
-5 -10 -11z"/>
<path d="M5420 5170 c0 -5 5 -10 10 -10 6 0 10 5 10 10 0 6 -4 10 -10 10 -5 0
-10 -4 -10 -10z"/>
<path d="M5516 5155 c-16 -12 -17 -15 -4 -15 9 0 18 7 22 15 7 18 6 18 -18 0z"/>
<path d="M5570 5149 c0 -5 5 -7 10 -4 6 3 10 8 10 11 0 2 -4 4 -10 4 -5 0 -10
-5 -10 -11z"/>
<path d="M5370 5130 c-9 -6 -10 -10 -3 -10 6 0 15 5 18 10 8 12 4 12 -15 0z"/>
<path d="M5560 5116 c0 -2 7 -7 16 -10 8 -3 12 -2 9 4 -6 10 -25 14 -25 6z"/>
<path d="M5645 5110 c-3 -5 -1 -10 4 -10 6 0 11 5 11 10 0 6 -2 10 -4 10 -3 0
-8 -4 -11 -10z"/>
<path d="M3838 4923 c7 -3 16 -2 19 1 4 3 -2 6 -13 5 -11 0 -14 -3 -6 -6z"/>
<path d="M5866 4841 c-4 -5 3 -7 14 -4 23 6 26 13 6 13 -8 0 -17 -4 -20 -9z"/>
<path d="M6355 4828 c-2 -13 -6 -161 -7 -331 -3 -313 -1 -332 33 -290 11 13
14 78 14 327 0 285 -1 311 -17 314 -11 2 -19 -5 -23 -20z"/>
<path d="M6234 4663 c-4 -31 -5 -143 -2 -249 4 -168 3 -199 -12 -232 -21 -46
-55 -70 -116 -81 -50 -10 -59 -15 -49 -30 21 -34 156 14 196 70 24 34 24 37
27 307 3 266 3 272 -17 272 -16 0 -21 -9 -27 -57z"/>
<path d="M5074 4601 c-128 -31 -234 -134 -279 -270 -23 -69 -16 -183 15 -264
42 -111 162 -203 294 -228 162 -30 339 68 414 228 23 50 27 71 27 153 0 82 -4
103 -27 152 -35 76 -80 130 -142 173 -81 55 -207 78 -302 56z m131 -172 c23
-6 58 -23 76 -38 l32 -27 -69 -17 c-114 -28 -159 -74 -159 -165 0 -48 6 -66
37 -117 20 -33 33 -61 28 -63 -18 -6 -115 44 -147 76 -94 94 -59 269 66 334
59 31 73 33 136 17z"/>
<path d="M6296 4098 c-66 -69 -184 -107 -333 -108 -46 0 -53 -3 -53 -20 0 -18
7 -20 73 -20 155 0 268 39 337 117 38 44 46 64 24 69 -5 1 -26 -16 -48 -38z"/>
<path d="M5964 3804 c-18 -14 -18 -15 4 -4 12 6 22 13 22 15 0 8 -5 6 -26 -11z"/>
<path d="M4378 3773 c7 -3 16 -2 19 1 4 3 -2 6 -13 5 -11 0 -14 -3 -6 -6z"/>
<path d="M5398 3683 c7 -3 16 -2 19 1 4 3 -2 6 -13 5 -11 0 -14 -3 -6 -6z"/>
<path d="M5611 3644 c0 -11 3 -14 6 -6 3 7 2 16 -1 19 -3 4 -6 -2 -5 -13z"/>
<path d="M5636 3651 c-3 -5 1 -11 9 -15 9 -3 15 0 15 9 0 16 -16 20 -24 6z"/>
<path d="M5415 3640 c3 -5 8 -10 11 -10 2 0 4 5 4 10 0 6 -5 10 -11 10 -5 0
-7 -4 -4 -10z"/>
<path d="M5560 3640 c0 -5 5 -10 11 -10 5 0 7 5 4 10 -3 6 -8 10 -11 10 -2 0
-4 -4 -4 -10z"/>
<path d="M7240 5935 c-7 -8 -16 -47 -20 -86 -9 -83 -27 -113 -91 -149 -38 -22
-60 -26 -168 -30 -104 -4 -126 -8 -135 -22 -8 -13 -8 -23 0 -35 9 -15 30 -18
135 -21 75 -2 141 2 167 9 61 17 136 87 156 146 19 55 21 174 4 191 -16 16
-33 15 -48 -3z"/>
<path d="M8341 5154 c-129 -65 -157 -223 -60 -329 48 -52 92 -69 165 -63 197
17 253 282 81 382 -68 40 -121 43 -186 10z m170 -103 c32 -32 39 -46 39 -77 0
-51 -18 -83 -59 -111 -47 -32 -101 -30 -140 3 -91 77 -41 224 76 224 39 0 50
-5 84 -39z"/>
<path d="M1805 5155 c-132 -71 -164 -226 -67 -328 93 -99 241 -86 319 27 29
42 33 56 33 110 0 51 -5 70 -29 108 -43 68 -83 92 -161 96 -46 2 -74 -2 -95
-13z m143 -79 c37 -20 62 -66 62 -114 0 -84 -93 -142 -173 -109 -46 20 -82 84
-73 131 17 81 115 131 184 92z"/>
<path d="M2310 5151 c-19 -10 -42 -30 -50 -44 -13 -23 -13 -28 4 -46 25 -27
42 -26 78 4 50 42 111 28 143 -35 31 -59 9 -138 -50 -176 -25 -16 -34 -16
-132 2 -37 7 -49 -9 -39 -50 4 -17 19 -29 51 -42 39 -15 53 -15 98 -5 65 14
123 60 148 115 20 45 25 130 9 172 -15 38 -57 86 -94 106 -42 23 -122 23 -166
-1z"/>
<path d="M7845 5153 c-147 -77 -152 -285 -9 -369 90 -53 219 -28 219 42 0 24
-4 30 -29 32 -16 2 -33 -1 -39 -7 -33 -33 -134 5 -162 59 -39 76 15 180 93
180 10 0 29 -11 42 -25 44 -47 105 -17 85 42 -20 56 -133 82 -200 46z"/>
<path d="M7815 4178 c-55 -30 -325 -276 -325 -295 0 -8 11 -28 24 -44 31 -36
41 -120 32 -272 -15 -275 -19 -323 -26 -335 -5 -9 -39 30 -103 120 -104 145
-127 188 -127 242 0 49 -35 73 -82 57 -81 -28 -352 -249 -364 -298 -9 -33 16
-53 57 -46 67 10 125 -57 414 -482 38 -55 93 -136 123 -180 30 -44 74 -118 96
-165 37 -76 42 -95 46 -180 5 -90 6 -95 32 -109 25 -15 31 -14 80 10 78 39
163 106 261 208 112 116 114 138 16 194 -53 30 -137 118 -186 194 -27 42 -33
62 -33 105 0 85 -3 84 159 70 166 -15 296 -48 405 -103 54 -27 87 -38 102 -35
42 11 224 312 224 370 0 35 -27 59 -59 52 -74 -18 -152 -17 -266 3 -175 30
-255 40 -364 47 -53 4 -103 8 -111 9 -12 2 -14 16 -12 71 5 105 52 652 61 714
7 44 6 58 -7 73 -17 19 -38 21 -67 5z"/>
<path d="M2499 4109 c-9 -18 -7 -27 10 -50 25 -34 28 -98 6 -159 -60 -171
-528 -710 -659 -759 -15 -6 -49 -11 -74 -11 -59 0 -92 -21 -92 -58 0 -45 70
-151 164 -250 122 -126 157 -133 215 -38 65 108 174 182 286 193 64 7 62 10
35 -90 -26 -98 -58 -281 -66 -375 l-6 -77 58 -56 c69 -64 194 -151 261 -180
65 -28 114 -22 132 15 12 26 11 35 -13 95 -53 136 -61 184 -60 361 1 169 19
300 46 327 7 6 49 19 93 28 44 9 163 36 265 60 271 64 356 78 426 72 67 -7 84
2 84 41 0 54 -77 136 -208 220 -95 61 -105 61 -357 -2 -223 -56 -420 -94 -431
-83 -8 8 23 51 132 182 98 119 160 179 193 190 12 3 21 13 21 21 0 28 -269
315 -349 372 -52 38 -95 42 -112 11z"/>
<path d="M3904 3122 c-46 -22 -90 -71 -299 -327 -279 -342 -457 -528 -550
-571 -30 -15 -69 -24 -98 -24 -50 0 -106 -22 -108 -43 -6 -54 21 -91 130 -173
105 -78 231 -144 277 -144 51 0 74 28 73 90 -1 40 4 58 27 91 37 55 102 109
130 109 12 0 73 -22 136 -49 112 -48 279 -110 308 -115 19 -3 35 -100 26 -150
-4 -19 -23 -58 -43 -87 -30 -44 -34 -57 -27 -78 13 -35 84 -62 249 -96 228
-46 302 -44 327 10 10 22 8 29 -21 63 -87 102 -96 131 -131 412 -31 256 -80
765 -80 835 0 49 4 66 20 80 30 27 25 50 -20 87 -102 88 -238 121 -326 80z
m11 -831 c-5 -5 -97 26 -182 61 -86 35 -91 16 49 181 l93 110 21 -174 c12 -96
20 -176 19 -178z"/>
<path d="M6249 3124 c-56 -17 -135 -69 -163 -107 l-20 -27 32 -30 c18 -16 32
-35 32 -42 0 -7 -7 -110 -15 -228 -15 -214 -22 -285 -50 -515 -8 -66 -17 -145
-21 -175 -11 -111 -35 -242 -48 -273 -7 -18 -32 -54 -55 -80 -22 -27 -41 -54
-41 -60 0 -26 32 -56 65 -63 69 -13 336 49 411 95 46 28 48 54 8 102 -44 53
-50 76 -46 182 1 28 7 49 15 51 89 23 264 86 338 122 52 25 108 46 126 47 39
1 107 -52 151 -118 25 -38 29 -52 25 -85 -7 -52 16 -80 65 -80 65 0 244 109
352 215 48 46 60 64 60 89 0 45 -16 56 -79 56 -144 0 -254 106 -739 707 -120
149 -172 198 -231 219 -47 17 -114 16 -172 -2z m197 -531 c73 -88 170 -208
177 -220 5 -8 -5 -18 -30 -28 -63 -27 -224 -77 -229 -72 -7 7 29 367 36 367 4
0 25 -21 46 -47z"/>
<path d="M4643 2946 c-44 -20 -43 -48 1 -74 70 -42 71 -47 70 -427 -1 -403
-11 -696 -24 -746 -6 -20 -32 -62 -60 -93 -27 -31 -50 -65 -50 -75 0 -56 97
-74 373 -69 185 3 207 5 226 22 30 28 26 52 -18 103 -51 57 -61 105 -61 283
l0 140 103 0 c191 0 325 48 430 153 180 180 175 471 -11 639 -79 71 -162 109
-297 135 -119 22 -637 29 -682 9z m657 -338 c85 -43 114 -129 67 -199 -33 -49
-87 -72 -184 -77 l-83 -5 0 145 c0 80 3 148 7 151 3 4 38 7 78 7 54 0 82 -5
115 -22z"/>
</g>
</svg>
